<svg xmlns="http://www.w3.org/2000/svg" width="147.016" height="85.936" viewBox="0 0 147.016 85.936"><defs><style>.a{fill:#3bde91;}.b{fill:#fff;}.c{fill:#00e288;}</style></defs><path class="a" d="M113.933,67.416H32.969C14.835,67.416,0,52.247,0,33.709S14.835,0,32.969,0h80.964C132.065,0,146.9,15.169,146.9,33.709s-14.837,33.707-32.969,33.707"/><path class="a" d="M799.1,418.528a8.994,8.994,0,1,1-8.993-9.158,9.076,9.076,0,0,1,8.993,9.158" transform="translate(-652.093 -341.749)"/><path class="b" d="M128.337,123.93a10.628,10.628,0,1,1,9.1-16.114l5.986-3.532a17.577,17.577,0,1,0,.038,17.972l-5.961-3.575a10.621,10.621,0,0,1-9.166,5.248" transform="translate(-92.466 -79.912)"/><path class="b" d="M343.707,123.84V104h7.24v18.87c0,4.718,3.231,7.886,8.015,7.886s7.95-3.168,7.95-7.886V104h7.24v19.84c0,8.4-6.189,13.9-15.2,13.9-9.179,0-15.255-5.494-15.255-13.9" transform="translate(-286.927 -86.821)"/><path class="b" d="M582.357,102.451a10.675,10.675,0,0,1,10.242,7.661l-20.478,0a10.672,10.672,0,0,1,10.241-7.66m0,21.335a10.672,10.672,0,0,1-10.241-7.7v-.055h.094l27.569.035a17.848,17.848,0,0,0,.246-2.945,17.646,17.646,0,1,0-3.52,10.572l-5.378-4.481a10.652,10.652,0,0,1-8.755,4.571" transform="translate(-471.451 -79.695)"/><path class="c" d="M839.533.57h-1.465V4.576h-.6V.57H836V0h3.533Z" transform="translate(-697.907)"/><path class="c" d="M866.495,0V4.576h-.6V.922l-1.551,2.692H864L862.449.922V4.576h-.609V0h.77l1.564,2.719L865.747,0Z" transform="translate(-719.479)"/></svg>